<?xml version="1.0" encoding="utf-8"?>
<!-- Generator: Adobe Illustrator 22.1.0, SVG Export Plug-In . SVG Version: 6.00 Build 0)  -->
<svg version="1.1" id="Capa_1" xmlns="http://www.w3.org/2000/svg" xmlns:xlink="http://www.w3.org/1999/xlink" x="0px" y="0px"
	 viewBox="0 0 512 512" style="enable-background:new 0 0 512 512;" xml:space="preserve">
<style type="text/css">
	.st0{fill:#660099;}
	.st1{fill:#FFFFFF;}
</style>
<g>
	<circle class="st0" cx="256" cy="255.5" r="256"/>
	<g>
		<path class="st1" d="M278.3,247.4l99.1-99.1c6.2-6.2,6.2-16.1,0-22.3c-6.2-6.2-16.1-6.2-22.3,0L256,225.1L156.9,126
			c-6.2-6.2-16.1-6.2-22.3,0c-6.2,6.2-6.2,16.1,0,22.3l99.1,99.1l-99.1,99.1c-6.2,6.2-6.2,16.1,0,22.3c3.1,3.1,7.1,4.6,11.1,4.6
			s8.1-1.5,11.1-4.6l99.1-99.1l99.1,99.1c3.1,3.1,7.1,4.6,11.1,4.6c4,0,8.1-1.5,11.1-4.6c6.2-6.2,6.2-16.1,0-22.3L278.3,247.4z"/>
	</g>
</g>
</svg>
