<?xml version="1.0" encoding="utf-8"?>
<!-- Generator: Adobe Illustrator 22.1.0, SVG Export Plug-In . SVG Version: 6.00 Build 0)  -->
<svg version="1.1" id="Capa_1" xmlns="http://www.w3.org/2000/svg" xmlns:xlink="http://www.w3.org/1999/xlink" x="0px" y="0px"
	 viewBox="0 0 512 512" style="enable-background:new 0 0 512 512;" xml:space="preserve">
<style type="text/css">
	.st0{fill:#660099;}
	.st1{fill:#FFFFFF;}
</style>
<g>
	<circle class="st0" cx="256" cy="256" r="256"/>
	<g>
		<g>
			<path class="st1" d="M160.7,406.6c0.3,8.5,7.3,15.3,15.8,15.4l148.9,1.2c8.5,0.1,15.6-6.6,16.1-15.2l12.5-224.4l-202-1.7
				L160.7,406.6z M286.1,238.9c0-3.6,3-6.5,6.5-6.4l10.4,0.1c3.6,0,6.5,3,6.4,6.5l-1.1,128.3c0,3.6-3,6.5-6.5,6.4l-10.4-0.1
				c-3.6,0-6.5-3-6.4-6.5L286.1,238.9z M240.8,238.5c0-3.6,3-6.5,6.5-6.4l10.4,0.1c3.6,0,6.5,3,6.4,6.5L263,366.9
				c0,3.6-3,6.5-6.5,6.4l-10.4-0.1c-3.6,0-6.5-3-6.4-6.5L240.8,238.5L240.8,238.5z M195.4,238.1c0-3.6,3-6.5,6.5-6.4l10.4,0.1
				c3.6,0,6.5,3,6.4,6.5l-1.1,128.3c0,3.6-3,6.5-6.5,6.4l-10.4-0.1c-3.6,0-6.5-3-6.4-6.5L195.4,238.1z"/>
			<path class="st1" d="M361.5,122.9l-68.7-0.6l0.1-13c0-1.8-1.5-3.4-3.3-3.4l-72.1-0.6c-1.8,0-3.4,1.5-3.4,3.3l-0.1,13l-68.7-0.6
				c-5.5,0-10,4.4-10.1,9.9l-0.3,31.4l236.2,2l0.3-31.4C371.5,127.4,367,122.9,361.5,122.9z"/>
		</g>
	</g>
</g>
</svg>
