<?xml version="1.0" encoding="utf-8"?>
<!-- Generator: Adobe Illustrator 22.1.0, SVG Export Plug-In . SVG Version: 6.00 Build 0)  -->
<svg version="1.1" id="Capa_1" xmlns="http://www.w3.org/2000/svg" xmlns:xlink="http://www.w3.org/1999/xlink" x="0px" y="0px"
	 viewBox="0 0 512 512" style="enable-background:new 0 0 512 512;" xml:space="preserve">
<style type="text/css">
	.st0{fill:#660099;}
	.st1{fill:#FFFFFF;}
</style>
<g>
	<circle class="st0" cx="256" cy="256" r="256"/>
	<path class="st1" d="M364.2,122.7c-1.3-1.1-3.1-1.4-4.7-0.7L78.2,252.8c-1.5,0.7-2.5,2.2-2.5,3.9c0,1.7,0.9,3.2,2.4,3.9l79.6,39.1
		c1.5,0.7,3.2,0.6,4.5-0.4l77.4-57.9l-60.8,62.5c-0.9,0.9-1.3,2.1-1.2,3.4l6.1,78.8c0.1,1.7,1.3,3.2,3,3.8c0.4,0.1,0.9,0.2,1.4,0.2
		c1.2,0,2.4-0.5,3.3-1.5l42.3-49l52.2,25c1.1,0.5,2.4,0.6,3.6,0.1c1.2-0.5,2-1.5,2.4-2.7l73.7-234.7
		C366,125.6,365.5,123.9,364.2,122.7z"/>
</g>
</svg>
