<?xml version="1.0" encoding="utf-8"?>
<!-- Generator: Adobe Illustrator 22.1.0, SVG Export Plug-In . SVG Version: 6.00 Build 0)  -->
<svg version="1.1" id="Capa_1" xmlns="http://www.w3.org/2000/svg" xmlns:xlink="http://www.w3.org/1999/xlink" x="0px" y="0px"
	 viewBox="0 0 512 512" style="enable-background:new 0 0 512 512;" xml:space="preserve">
<style type="text/css">
	.st0{fill:#FFFFFF;}
</style>
<g>
	<path class="st0" d="M501.1,41.7c-10.3-10.4-25.3-13.8-39.2-8.8l-82.4,29.7c-37.7-24.7-81.4-37.8-126.6-37.8
		c-44.3,0-87.3,12.6-124.4,36.4L50,32.8c-13.8-5-28.8-1.6-39.2,8.9C0.5,52.1-2.7,67.1,2.4,80.9l34.4,92.8
		c-10,26.2-15.1,53.9-15.1,82.3c0,127.5,103.8,231.3,231.3,231.3c127.5,0,231.3-103.8,231.3-231.3c0-25.2-4.1-50.1-12.1-73.9
		l37.5-101.2C514.7,67.1,511.5,52.1,501.1,41.7z M431.7,189.1c8,21.4,12.1,43.9,12.1,66.9c0,105.2-85.6,190.8-190.8,190.8
		c-105.2,0-190.8-85.6-190.8-190.8c0-25.7,5-50.7,14.9-74.1l3.1-7.4L42.6,73.2l91.7,33l8.6-6.1c32.3-22.8,70.4-34.9,110-34.9
		c40.4,0,79.1,12.5,111.8,36.2l8.7,6.3l95.9-34.5L429,182L431.7,189.1z"/>
</g>
</svg>
