<?xml version="1.0" encoding="utf-8"?>
<!-- Generator: Adobe Illustrator 22.1.0, SVG Export Plug-In . SVG Version: 6.00 Build 0)  -->
<svg version="1.1" id="Capa_1" xmlns="http://www.w3.org/2000/svg" xmlns:xlink="http://www.w3.org/1999/xlink" x="0px" y="0px"
	 viewBox="0 0 512 512" style="enable-background:new 0 0 512 512;" xml:space="preserve">
<style type="text/css">
	.st0{fill:#660099;}
	.st1{fill:#FFFFFF;}
</style>
<g>
	<circle class="st0" cx="256" cy="256" r="256"/>
	<g>
		<g>
			<path class="st1" d="M415.6,236.8c-5.5,0-9.9,4.4-9.9,9.9v89.7c0,24.4-19.9,44.2-44.2,44.2H145.2c-24.4,0-44.2-19.9-44.2-44.2
				v-91.2c0-5.5-4.4-9.9-9.9-9.9c-5.5,0-9.9,4.4-9.9,9.9v91.2c0,35.3,28.7,63.9,63.9,63.9h216.4c35.3,0,63.9-28.7,63.9-63.9v-89.7
				C425.5,241.3,421.1,236.8,415.6,236.8z"/>
			<path class="st1" d="M197.6,160.8l45.9-45.9V315c0,5.5,4.4,9.9,9.9,9.9c5.5,0,9.9-4.4,9.9-9.9V114.9l45.9,45.9
				c1.9,1.9,4.5,2.9,6.9,2.9c2.6,0,5-0.9,6.9-2.9c3.9-3.9,3.9-10.1,0-14l-62.7-62.7c-1.8-1.8-4.4-2.9-6.9-2.9c-2.6,0-5.1,1-6.9,2.9
				l-62.7,62.7c-3.9,3.9-3.9,10.1,0,14C187.6,164.6,193.8,164.6,197.6,160.8z"/>
		</g>
	</g>
</g>
</svg>
